<!DOCTYPE svg PUBLIC "-//W3C//DTD SVG 1.1//EN" "http://www.w3.org/Graphics/SVG/1.1/DTD/svg11.dtd">
<!-- Uploaded to: SVG Repo, www.svgrepo.com, Transformed by: SVG Repo Mixer Tools -->
<svg height="800px" width="800px" version="1.1" id="Layer_1" xmlns="http://www.w3.org/2000/svg" xmlns:xlink="http://www.w3.org/1999/xlink" viewBox="-46.1 -46.1 553.20 553.20" xml:space="preserve" fill="#000000">
<g id="SVGRepo_bgCarrier" stroke-width="0" transform="translate(92.2002,92.2002), scale(0.6)">
<path transform="translate(-46.1, -46.1), scale(17.2875)" d="M16,29.456654634740616C18.96169963195173,29.780275288613193,20.94961017892852,26.501827237066028,22.99190394108564,24.332626640862426C24.757802940007494,22.456995802500234,26.30014380504105,20.429194006884018,26.86557959356064,17.91589484338006C27.4561410871171,15.290914716743313,27.669878026858576,12.36386670878349,26.19016670980566,10.116704507006542C24.74853341781217,7.927369462220108,21.969487772746575,7.211504475987023,19.418817390512775,6.606876418327378C17.167527112677195,6.073215433592973,14.943982952542843,6.377329481820576,12.694256032959888,6.917543096058946C10.089896317104094,7.542912585410159,7.233493282854743,7.8923892743006885,5.513820019294515,9.945801165368817C3.6097739135359004,12.219367311656566,2.1941939908896853,15.466735471217008,3.197418882731183,18.25744047368321C4.174729846854487,20.976059816887147,8.00813785884207,21.030873435870802,10.182549966006462,22.932966977749103C12.443692463776033,24.910928987849758,13.013595094517255,29.130334471205426,16,29.456654634740616" fill="#ffffff" strokewidth="0"/>
</g>
<g id="SVGRepo_tracerCarrier" stroke-linecap="round" stroke-linejoin="round"/>
<g id="SVGRepo_iconCarrier"> <g> <path style="fill:#F61C0D;" d="M365.257,67.393H95.744C42.866,67.393,0,110.259,0,163.137v134.728 c0,52.878,42.866,95.744,95.744,95.744h269.513c52.878,0,95.744-42.866,95.744-95.744V163.137 C461.001,110.259,418.135,67.393,365.257,67.393z M300.506,237.056l-126.06,60.123c-3.359,1.602-7.239-0.847-7.239-4.568V168.607 c0-3.774,3.982-6.22,7.348-4.514l126.06,63.881C304.363,229.873,304.298,235.248,300.506,237.056z"/> </g> </g>
</svg>